<?xml version="1.0" encoding="UTF-8"?>
<svg id="Layer_1" data-name="Layer 1" xmlns="http://www.w3.org/2000/svg" xmlns:xlink="http://www.w3.org/1999/xlink" viewBox="0 0 2309 1227.57">
  <defs>
    <style>
      .cls-1 {
        mask: url(#mask);
      }

      .cls-2 {
        mask: url(#mask-2);
      }

      .cls-3 {
        mask: url(#mask-3);
      }

      .cls-4 {
        mask: url(#mask-4);
      }

      .cls-5 {
        mask: url(#mask-5);
      }

      .cls-6 {
        mask: url(#mask-7);
      }

      .cls-7 {
        mask: url(#mask-6);
      }

      .cls-8 {
        mask: url(#mask-1);
      }

      .cls-9 {
        fill: #fff;
      }
    </style>
    <mask id="mask" x="934.95" y="149.18" width="772.79" height="809.73" maskUnits="userSpaceOnUse">
      <g id="path-1-outside-1_122_143" data-name="path-1-outside-1 122 143">
        <rect class="cls-9" x="934.95" y="149.18" width="772.79" height="809.73"/>
        <path d="M1399.22,589.98l93.44,226.58-105.23,43.39-95.02-230.42-333.23-258.91,115.21-47.51,238.17,198.35,26.05-307.31,110.6-45.61-49.99,421.43Z"/>
      </g>
    </mask>
    <mask id="mask-1" x="1379.41" y="-12.21" width="567.31" height="705.2" maskUnits="userSpaceOnUse">
      <g id="path-3-outside-2_122_143" data-name="path-3-outside-2 122 143">
        <rect class="cls-9" x="1379.41" y="-12.21" width="567.31" height="705.2"/>
        <path d="M1862.74,542.53c-28.86,41.27-76.08,70.7-141.65,88.26-30.3,8.12-61.78,12.83-94.43,14.12-32.3.67-62.1-2.26-89.4-8.79l-15.07-94.98c57.63,22.36,115.25,25.82,172.87,10.38,35.76-9.58,61.47-23.92,77.11-43.02,15.65-19.1,20.08-41.31,13.29-66.65-3.59-13.41-9.88-23.97-18.87-31.68-9.12-8.2-23.57-14.45-43.35-18.73-19.28-4.42-46.03-7.9-80.26-10.44-41.21-2.8-74.8-8.97-100.78-18.51-26.12-10.04-46.42-23.23-60.92-39.58-14.13-16.98-24.19-36.64-30.18-58.99-8.91-33.28-8.62-63.97.89-92.07,9.87-28.73,27.72-53.48,53.57-74.25,25.71-21.26,58.19-37.15,97.43-47.67,28.31-7.59,56.99-11.81,86.04-12.67,29.05-.86,55.6,1.87,79.66,8.2l-3.17,89.49c-20.35-8.39-41.96-13.51-64.81-15.38-22.86-1.86-46.21.4-70.05,6.79-30.3,8.12-52.98,20.85-68.03,38.19-15.05,17.34-19.51,37.44-13.39,60.29,4.92,18.38,17.18,31.33,36.76,38.86,19.46,7.03,51.48,12.29,96.07,15.78,46.44,2.46,83.35,9.08,110.72,19.84,27.24,10.27,47.75,24.21,61.51,41.81,14.14,16.98,24.33,37.14,30.58,60.48,14.11,52.65,6.73,99.61-22.14,140.89Z"/>
      </g>
    </mask>
    <mask id="mask-2" x="351.34" y="-.66" width="718.89" height="759.15" maskUnits="userSpaceOnUse">
      <g id="path-5-outside-3_122_143" data-name="path-5-outside-3 122 143">
        <rect class="cls-9" x="351.34" y="-.66" width="718.89" height="759.15"/>
        <path d="M654.01,16.39l132.26,76.36c59.23,34.2,102.49,73.42,129.79,117.68,27.55,43.81,40.32,90.08,38.32,138.8-1.3,48.53-15.83,96.85-43.6,144.94-27.77,48.1-62.47,85.06-104.11,110.9-40.93,25.65-87.39,37.72-139.37,36.21-51.98-1.51-107.58-19.36-166.81-53.56l-132.26-76.36L654.01,16.39ZM704.64,140.04l-204.02,353.37,51.44,29.7c53.44,30.85,102.65,38.18,147.62,21.99,45.68-16.38,84.07-51.51,115.18-105.4,31.37-54.33,42.6-105.15,33.69-152.45-8.21-47.49-39.03-86.66-92.47-117.52l-51.44-29.7Z"/>
      </g>
    </mask>
    <mask id="mask-3" x="1939.78" y="637.13" width="364" height="596" maskUnits="userSpaceOnUse">
      <g id="path-7-outside-4_122_143" data-name="path-7-outside-4 122 143">
        <rect class="cls-9" x="1939.78" y="637.13" width="364" height="596"/>
        <path d="M1952.34,649.56h105.68v489.03h232.94v82.54h-338.62v-571.57Z"/>
      </g>
    </mask>
    <mask id="mask-4" x="16.25" y="521.73" width="678.85" height="697.47" maskUnits="userSpaceOnUse">
      <g id="path-9-outside-5_122_143" data-name="path-9-outside-5 122 143">
        <rect class="cls-9" x="16.25" y="521.73" width="678.85" height="697.47"/>
        <path d="M412.5,539.37l259.3,229.58-61.13,55.08-173.25-153.39-98.69,111.46,139.18,123.23-54.71,61.79-139.18-123.23-117.09,132.25,185.96,164.65-54.2,61.21L33.61,967.31l378.89-427.94Z"/>
      </g>
    </mask>
    <mask id="mask-5" x="592.57" y="631.57" width="564" height="596" maskUnits="userSpaceOnUse">
      <g id="path-11-outside-6_122_143" data-name="path-11-outside-6 122 143">
        <rect class="cls-9" x="592.57" y="631.57" width="564" height="596"/>
        <path d="M814.78,914.75l-180.49-270.74h122.64l120.33,196.69,125.73-196.69h115.7l-182.04,274.59,196.69,296.97h-121.87l-137.3-223.69-142.7,223.69h-115.7l199.01-300.82Z"/>
      </g>
    </mask>
    <mask id="mask-6" x="1166.56" y="631.57" width="131" height="596" maskUnits="userSpaceOnUse">
      <g id="path-13-outside-7_122_143" data-name="path-13-outside-7 122 143">
        <rect class="cls-9" x="1166.56" y="631.57" width="131" height="596"/>
        <path d="M1179.12,644.01h105.68v571.56h-105.68v-571.56Z"/>
      </g>
    </mask>
    <mask id="mask-7" x="1335.57" y="630.57" width="570" height="597" maskUnits="userSpaceOnUse">
      <g id="path-15-outside-8_122_143" data-name="path-15-outside-8 122 143">
        <rect class="cls-9" x="1335.57" y="630.57" width="570" height="597"/>
        <path d="M1454.39,929.4c34.45-95.64,69.67-191.03,105.67-286.16h120.33c36.51,95.13,71.99,190.52,106.45,286.16,34.45,95.65,68.13,191.04,101.04,286.17h-109.53c-7.71-24.68-15.68-49.36-23.91-74.05-8.23-25.19-16.2-50.13-23.91-74.82h-223.69c-16.46,50.4-32.66,100.02-48.6,148.87h-105.67c33.42-95.13,67.36-190.52,101.82-286.17ZM1661.11,861.53c-13.89-41.66-28.03-83.05-42.43-124.19-14.4,41.14-28.54,82.53-42.42,124.19-13.89,41.13-27.77,82.27-41.65,123.41h168.15c-13.37-41.14-27.25-82.28-41.65-123.41Z"/>
      </g>
    </mask>
  </defs>
  <path d="M1399.22,589.98l93.44,226.58-105.23,43.39-95.02-230.42-333.23-258.91,115.21-47.51,238.17,198.35,26.05-307.31,110.6-45.61-49.99,421.43Z"/>
  <g class="cls-1">
    <path d="M1399.22,589.98l-11.91-1.41-.37,3.1,1.19,2.89,11.09-4.58ZM1492.66,816.56l4.57,11.1,11.1-4.58-4.58-11.09-11.09,4.57ZM1387.43,859.95l-11.09,4.58,4.57,11.09,11.1-4.57-4.58-11.1ZM1292.41,629.53l11.1-4.57-1.22-2.95-2.51-1.95-7.37,9.48ZM959.18,370.62l-4.57-11.09-19.12,7.88,16.33,12.69,7.36-9.48ZM1074.39,323.11l7.68-9.22-5.56-4.63-6.69,2.76,4.57,11.09ZM1312.56,521.47l-7.68,9.22,17.69,14.73,1.94-22.94-11.95-1.01ZM1338.61,214.16l-4.57-11.09-6.77,2.79-.62,7.29,11.96,1.01ZM1449.21,168.55l11.92,1.41,2.41-20.3-18.9,7.79,4.57,11.09ZM1388.13,594.55l93.43,226.58,22.19-9.15-93.43-226.58-22.19,9.15ZM1488.08,805.47l-105.22,43.39,9.15,22.19,105.22-43.39-9.15-22.19ZM1398.52,855.38l-95.01-230.42-22.19,9.15,95.02,230.42,22.18-9.15ZM1299.78,620.05l-333.24-258.91-14.73,18.95,333.23,258.91,14.73-18.95ZM963.76,381.72l115.21-47.51-9.15-22.19-115.21,47.51,9.15,22.19ZM1066.71,332.34l238.17,198.35,15.36-18.44-238.17-198.35-15.36,18.44ZM1324.51,522.48l26.06-307.31-23.92-2.03-26.05,307.31,23.91,2.03ZM1343.19,225.25l110.6-45.61-9.15-22.19-110.6,45.61,9.15,22.19ZM1437.3,167.14l-49.99,421.43,23.83,2.83,49.99-421.43-23.83-2.83Z"/>
  </g>
  <path d="M1862.74,542.53c-28.86,41.27-76.08,70.7-141.65,88.26-30.3,8.12-61.78,12.83-94.43,14.12-32.3.67-62.1-2.26-89.4-8.79l-15.07-94.98c57.63,22.36,115.25,25.82,172.87,10.38,35.76-9.58,61.47-23.92,77.11-43.02,15.65-19.1,20.08-41.31,13.29-66.65-3.59-13.41-9.88-23.97-18.87-31.68-9.12-8.2-23.57-14.45-43.35-18.73-19.28-4.42-46.03-7.9-80.26-10.44-41.21-2.8-74.8-8.97-100.78-18.51-26.12-10.04-46.42-23.23-60.92-39.58-14.13-16.98-24.19-36.64-30.18-58.99-8.91-33.28-8.62-63.97.89-92.07,9.87-28.73,27.72-53.48,53.57-74.25,25.71-21.26,58.19-37.15,97.43-47.67,28.31-7.59,56.99-11.81,86.04-12.67,29.05-.86,55.6,1.87,79.66,8.2l-3.17,89.49c-20.35-8.39-41.96-13.51-64.81-15.38-22.86-1.86-46.21.4-70.05,6.79-30.3,8.12-52.98,20.85-68.03,38.19-15.05,17.34-19.51,37.44-13.39,60.29,4.92,18.38,17.18,31.33,36.76,38.86,19.46,7.03,51.48,12.29,96.07,15.78,46.44,2.46,83.35,9.08,110.72,19.84,27.24,10.27,47.75,24.21,61.51,41.81,14.14,16.98,24.33,37.14,30.58,60.48,14.11,52.65,6.73,99.61-22.14,140.89Z"/>
  <g class="cls-8">
    <path d="M1862.74,542.53l-9.83-6.88h0l9.83,6.88ZM1626.66,644.92l.24,12h.12s.11,0,.11,0l-.47-11.99ZM1537.26,636.13l-11.85,1.88,1.25,7.93,7.81,1.86,2.79-11.67ZM1522.19,541.15l4.34-11.19-19.46-7.55,3.27,20.62,11.85-1.88ZM1772.17,508.51l9.29,7.6h0l-9.29-7.6ZM1766.59,410.18l-8.03,8.92.11.1.11.09,7.81-9.11ZM1723.24,391.45l-2.68,11.7.07.02.07.02,2.54-11.73ZM1642.98,381.01l.89-11.97h-.03s-.04,0-.04,0l-.82,11.97ZM1542.2,362.5l-4.31,11.2.09.03.08.03,4.14-11.26ZM1481.28,322.92l-9.22,7.68.12.14.13.14,8.97-7.96ZM1451.99,171.86l-11.35-3.9v.03s-.02.03-.02.03l11.37,3.85ZM1505.56,97.62l7.52,9.35.06-.05.07-.05-7.65-9.25ZM1689.03,37.28l-.36-11.99h0l.36,11.99ZM1768.69,45.48l11.99.42.34-9.59-9.28-2.44-3.05,11.61ZM1765.52,134.97l-4.58,11.09,15.96,6.58.61-17.25-11.99-.43ZM1700.71,119.59l-.98,11.96h0l.98-11.96ZM1562.63,164.58l9.06,7.87h0l-9.06-7.87ZM1586,263.72l-4.3,11.2.11.04.11.04,4.08-11.29ZM1682.07,279.51l-.94,11.96h.15s.15.02.15.02l.64-11.98ZM1792.79,299.35l-4.39,11.17.08.03.08.03,4.23-11.23ZM1854.3,341.16l-9.45,7.39.11.15.12.14,9.22-7.68ZM1852.91,535.65c-26.76,38.26-71.13,66.46-134.92,83.55l6.21,23.18c67.34-18.04,117.4-48.69,148.38-92.98l-19.67-13.76ZM1717.99,619.2c-29.41,7.88-60,12.46-91.81,13.73l.95,23.98c33.51-1.33,65.88-6.17,97.07-14.52l-6.21-23.18ZM1626.41,632.92c-31.43.65-60.19-2.21-86.36-8.46l-5.58,23.34c28.43,6.8,59.27,9.8,92.43,9.11l-.49-23.99ZM1549.11,634.25l-15.07-94.98-23.7,3.76,15.07,94.98,23.7-3.76ZM1517.85,552.34c59.91,23.24,120.14,26.9,180.32,10.78l-6.21-23.18c-55.07,14.75-110.08,11.5-165.43-9.97l-8.68,22.38ZM1698.17,563.12c37.04-9.92,65.43-25.22,83.29-47.01l-18.57-15.21c-13.44,16.4-36.45,29.79-70.93,39.03l6.21,23.18ZM1781.46,516.11c18.26-22.3,23.31-48.56,15.59-77.36l-23.18,6.21c5.86,21.87,2.04,40.04-10.98,55.93l18.57,15.21ZM1797.05,438.75c-4.11-15.33-11.53-28.14-22.65-37.68l-15.62,18.22c6.85,5.88,12.01,14.19,15.09,25.68l23.18-6.21ZM1774.62,401.26c-11.38-10.23-28.2-17.07-48.84-21.54l-5.08,23.46c18.92,4.1,31,9.75,37.86,15.92l16.06-17.84ZM1725.92,379.76c-20.15-4.61-47.59-8.15-82.05-10.71l-1.77,23.93c33.98,2.53,60.04,5.95,78.46,10.17l5.36-23.39ZM1643.8,369.04c-40.58-2.76-72.94-8.8-97.46-17.8l-8.28,22.53c27.44,10.08,62.27,16.38,104.11,19.22l1.63-23.95ZM1546.5,351.3c-24.8-9.54-43.33-21.78-56.24-36.34l-17.95,15.92c16.07,18.13,38.16,32.28,65.58,42.82l8.61-22.4ZM1490.51,315.25c-12.97-15.58-22.25-33.66-27.82-54.42l-23.18,6.21c6.42,23.95,17.26,45.19,32.55,63.56l18.45-15.35ZM1462.69,260.83c-8.4-31.37-7.97-59.61.66-85.12l-22.73-7.69c-10.38,30.69-10.54,63.83-1.11,99.02l23.18-6.21ZM1463.34,175.76c9.06-26.39,25.49-49.31,49.74-68.79l-15.04-18.71c-27.44,22.05-46.73,48.63-57.4,79.7l22.7,7.8ZM1513.21,106.86c24.13-19.95,54.95-35.16,92.88-45.32l-6.21-23.18c-40.55,10.86-74.67,27.44-101.97,50.01l15.3,18.49ZM1606.09,61.54c27.43-7.35,55.18-11.43,83.3-12.27l-.72-23.99c-29.98.89-59.59,5.25-88.79,13.08l6.21,23.18ZM1689.39,49.27c28.08-.83,53.47,1.82,76.24,7.81l6.11-23.21c-25.33-6.67-53.06-9.48-83.07-8.59l.72,23.99ZM1756.7,45.05l-3.18,89.49,23.99.85,3.17-89.49-23.98-.85ZM1770.09,123.87c-21.54-8.88-44.37-14.28-68.41-16.24l-1.95,23.92c21.68,1.76,42.06,6.61,61.21,14.51l9.15-22.19ZM1701.68,107.63c-24.33-1.98-49.06.44-74.13,7.16l6.21,23.18c22.62-6.06,44.59-8.16,65.97-6.42l1.95-23.92ZM1627.55,114.79c-31.79,8.52-56.88,22.21-73.98,41.92l18.12,15.73c13.01-14.98,33.26-26.75,62.07-34.47l-6.21-23.18ZM1553.57,156.71c-17.76,20.46-23.04,44.7-15.92,71.26l23.18-6.21c-5.13-19.14-1.48-35.09,10.86-49.31l-18.12-15.73ZM1537.65,227.97c6.03,22.51,21.31,38.21,44.05,46.96l8.61-22.4c-16.43-6.32-25.66-16.52-29.48-30.77l-23.18,6.21ZM1581.92,275.01c21.08,7.62,54.49,12.96,99.21,16.46l1.87-23.93c-44.46-3.48-75.09-8.66-92.92-15.11l-8.16,22.57ZM1681.43,291.49c45.81,2.43,81.29,8.92,106.97,19.03l8.78-22.33c-29.06-11.43-67.4-18.16-114.48-20.66l-1.27,23.97ZM1788.56,310.58c25.79,9.72,44.23,22.55,56.29,37.98l18.91-14.78c-15.48-19.79-38.05-34.83-66.74-45.65l-8.46,22.46ZM1845.08,348.84c12.92,15.52,22.36,34.08,28.21,55.91l23.19-6.21c-6.67-24.86-17.61-46.62-32.95-65.05l-18.45,15.35ZM1873.29,404.75c13.28,49.55,6.27,92.8-20.38,130.9l19.67,13.76c31.08-44.44,38.83-95.12,23.9-150.87l-23.19,6.21Z"/>
  </g>
  <path d="M654.01,16.39l132.26,76.36c59.23,34.2,102.49,73.42,129.79,117.68,27.55,43.81,40.32,90.08,38.32,138.8-1.3,48.53-15.83,96.85-43.6,144.94-27.77,48.1-62.47,85.06-104.11,110.9-40.93,25.65-87.39,37.72-139.37,36.21-51.98-1.51-107.58-19.36-166.81-53.56l-132.26-76.36L654.01,16.39ZM704.64,140.04l-204.02,353.37,51.44,29.7c53.44,30.85,102.65,38.18,147.62,21.99,45.68-16.38,84.07-51.51,115.18-105.4,31.37-54.33,42.6-105.15,33.69-152.45-8.21-47.49-39.03-86.66-92.47-117.52l-51.44-29.7Z"/>
  <g class="cls-2">
    <path d="M654.01,16.39l6-10.39-10.39-6-6,10.39,10.39,6ZM916.05,210.44l-10.21,6.3.03.04.03.05,10.16-6.39ZM954.38,349.24l-11.99-.49v.08s0,.09,0,.09l11.99.32ZM806.66,605.09l-6.33-10.2h-.02s-.02.03-.02.03l6.37,10.17ZM667.29,641.3l.35-12h0l-.35,12ZM368.22,511.38l-10.39-6-6,10.39,10.39,6,6-10.39ZM704.64,140.04l6-10.39-10.39-6-6,10.39,10.39,6ZM500.62,493.41l-10.39-6-6,10.39,10.39,6,6-10.39ZM699.68,545.1l-4.05-11.3h0s0,0,0,0l4.07,11.29ZM848.55,287.25l-11.82,2.04.02.09.02.09,11.79-2.22ZM648.01,26.79l132.26,76.36,12-20.79L660.01,6l-12,20.79ZM780.27,103.15c58.03,33.5,99.6,71.47,125.57,113.59l20.43-12.6c-28.61-46.4-73.57-86.89-134-121.78l-12,20.79ZM905.9,216.83c26.34,41.89,38.39,85.78,36.49,131.92l23.98.98c2.11-51.3-11.39-99.95-40.15-145.68l-20.32,12.78ZM942.38,348.92c-1.24,46.27-15.09,92.65-42,139.27l20.78,12c28.62-49.57,43.85-99.82,45.21-150.62l-23.99-.64ZM900.38,488.19c-26.91,46.62-60.3,82.04-100.04,106.71l12.65,20.39c43.53-27.01,79.55-65.52,108.17-115.1l-20.78-12ZM800.29,594.92c-38.77,24.29-82.85,35.83-132.65,34.39l-.7,23.99c54.16,1.57,102.99-11.03,146.09-38.04l-12.74-20.34ZM667.64,629.31c-49.46-1.43-103.12-18.45-161.16-51.95l-12,20.78c60.43,34.89,117.97,53.58,172.46,55.16l.7-23.99ZM506.49,577.35l-132.26-76.36-12,20.78,132.26,76.36,12-20.78ZM378.61,517.38L664.4,22.39l-20.78-12-285.78,494.99,20.79,12ZM694.25,134.04l-204.02,353.37,20.79,12,204.02-353.37-20.78-12ZM494.62,503.8l51.44,29.7,12-20.78-51.44-29.7-12,20.79ZM546.06,533.5c55.54,32.07,108.47,40.61,157.69,22.89l-8.13-22.58c-40.74,14.67-86.22,8.55-137.56-21.09l-12,20.78ZM703.73,556.4c49.03-17.58,89.4-55.06,121.52-110.69l-20.78-12c-30.1,52.14-66.52,84.93-108.84,100.1l8.1,22.59ZM825.25,445.7c32.36-56.05,44.67-109.79,35.09-160.67l-23.59,4.44c8.24,43.72-1.91,91.62-32.29,144.23l20.78,12ZM860.37,285.21c-8.98-51.94-42.71-93.77-98.3-125.87l-12,20.78c51.29,29.61,79.21,66.13,86.65,109.17l23.65-4.09ZM762.08,159.34l-51.44-29.7-12,20.79,51.44,29.7,12-20.78Z"/>
  </g>
  <path d="M1952.34,649.56h105.68v489.03h232.94v82.54h-338.62v-571.57Z"/>
  <g class="cls-3">
    <path d="M1952.34,649.56v-12h-12v12h12ZM2058.02,649.56h12v-12h-12v12ZM2058.02,1138.59h-12v12h12v-12ZM2290.96,1138.59h12v-12h-12v12ZM2290.96,1221.13v12h12v-12h-12ZM1952.34,1221.13h-12v12h12v-12ZM1952.34,661.56h105.68v-24h-105.68v24ZM2046.02,649.56v489.03h24v-489.03h-24ZM2058.02,1150.59h232.94v-24h-232.94v24ZM2278.96,1138.59v82.54h24v-82.54h-24ZM2290.96,1209.13h-338.62v24h338.62v-24ZM1964.34,1221.13v-571.57h-24v571.57h24Z"/>
  </g>
  <path d="M412.5,539.37l259.3,229.58-61.13,55.08-173.25-153.39-98.69,111.46,139.18,123.23-54.71,61.79-139.18-123.23-117.09,132.25,185.96,164.65-54.2,61.21L33.61,967.31l378.89-427.94Z"/>
  <g class="cls-4">
    <path d="M412.5,539.37l7.95-8.99-8.98-7.95-7.95,8.98,8.98,7.96ZM671.8,768.95l8.03,8.91,9.98-8.99-10.06-8.91-7.95,8.98ZM610.67,824.03l-7.95,8.99,8.02,7.1,7.96-7.17-8.03-8.92ZM437.42,670.64l7.95-8.99-8.98-7.95-7.95,8.98,8.98,7.96ZM338.73,782.1l-8.98-7.96-7.96,8.99,8.98,7.95,7.95-8.98ZM477.91,905.33l8.98,7.95,7.96-8.98-8.98-7.96-7.96,8.99ZM423.2,967.12l-7.96,8.98,8.99,7.96,7.95-8.99-8.98-7.95ZM284.02,843.89l7.95-8.98-8.98-7.96-7.95,8.99,8.98,7.95ZM166.93,976.14l-8.99-7.95-7.96,8.98,8.99,7.96,7.96-8.99ZM352.89,1140.79l8.98,7.95,7.96-8.98-8.98-7.96-7.96,8.99ZM298.69,1202l-7.96,8.99,8.98,7.95,7.96-8.98-8.98-7.96ZM33.61,967.31l-8.98-7.96-7.95,8.99,8.98,7.95,7.95-8.98ZM404.54,548.35l259.3,229.58,15.91-17.97-259.3-229.58-15.91,17.97ZM663.77,760.04l-61.13,55.08,16.07,17.83,61.13-55.08-16.07-17.83ZM618.62,815.05l-173.25-153.4-15.91,17.97,173.25,153.4,15.91-17.97ZM428.43,662.68l-98.68,111.46,17.97,15.91,98.68-111.46-17.97-15.91ZM330.78,791.08l139.18,123.23,15.91-17.97-139.18-123.23-15.91,17.97ZM468.93,897.37l-54.71,61.8,17.97,15.9,54.71-61.79-17.97-15.91ZM431.15,958.14l-139.18-123.23-15.91,17.97,139.18,123.22,15.91-17.96ZM275.04,835.94l-117.09,132.25,17.97,15.91,117.09-132.25-17.97-15.91ZM158.97,985.13l185.96,164.64,15.91-17.97-185.96-164.64-15.91,17.97ZM343.9,1132.83l-54.2,61.22,17.97,15.91,54.2-61.22-17.97-15.91ZM306.64,1193.02L41.56,958.32l-15.91,17.97,265.08,234.7,15.91-17.97ZM42.59,975.26l378.89-427.93-17.97-15.91L24.62,959.35l17.97,15.91Z"/>
  </g>
  <path d="M814.78,914.75l-180.49-270.74h122.64l120.33,196.69,125.73-196.69h115.7l-182.04,274.59,196.69,296.97h-121.87l-137.3-223.69-142.7,223.69h-115.7l199.01-300.82Z"/>
  <g class="cls-5">
    <path d="M814.78,914.75l10.01,6.62,4.4-6.65-4.42-6.63-9.99,6.66ZM634.28,644.01v-12h-22.42l12.44,18.66,9.99-6.66ZM756.93,644.01l10.24-6.26-3.51-5.74h-6.73v12ZM877.26,840.7l-10.24,6.26,10.01,16.37,10.33-16.17-10.11-6.46ZM1002.99,644.01v-12h-6.58l-3.54,5.54,10.12,6.46ZM1118.69,644.01l10,6.63,12.35-18.63h-22.35v12ZM936.65,918.6l-10-6.63-4.39,6.63,4.39,6.63,10.01-6.63ZM1133.34,1215.57v12h22.34l-12.33-18.62-10.01,6.62ZM1011.47,1215.57l-10.23,6.28,3.52,5.72h6.71v-12ZM874.17,991.88l10.23-6.28-10.03-16.34-10.31,16.17,10.12,6.45ZM731.47,1215.57v12h6.58l3.54-5.54-10.12-6.46ZM615.77,1215.57l-10.01-6.62-12.32,18.62h22.33v-12ZM824.76,908.09l-180.49-270.74-19.97,13.31,180.5,270.74,19.97-13.31ZM634.28,656.01h122.64v-24h-122.64v24ZM746.69,650.27l120.33,196.69,20.47-12.52-120.33-196.7-20.47,12.52ZM887.37,847.16l125.73-196.69-20.23-12.93-125.73,196.7,20.22,12.92ZM1002.99,656.01h115.7v-24h-115.7v24ZM1108.68,637.38l-182.03,274.59,20,13.27,182.04-274.6-20.01-13.26ZM926.65,925.23l196.69,296.97,20.01-13.25-196.7-296.97-20.01,13.25ZM1133.34,1203.57h-121.87v24h121.87v-24ZM1021.7,1209.29l-137.3-223.69-20.45,12.56,137.3,223.69,20.46-12.56ZM864.05,985.43l-142.7,223.69,20.23,12.91,142.7-223.69-20.23-12.91ZM731.47,1203.57h-115.7v24h115.7v-24ZM625.78,1222.19l199.01-300.82-20.02-13.24-199.01,300.82,20.02,13.24Z"/>
  </g>
  <path d="M1179.12,644.01h105.68v571.56h-105.68v-571.56Z"/>
  <g class="cls-7">
    <path d="M1179.12,644.01v-12h-12v12h12ZM1284.8,644.01h12v-12h-12v12ZM1284.8,1215.57v12h12v-12h-12ZM1179.12,1215.57h-12v12h12v-12ZM1179.12,656.01h105.68v-24h-105.68v24ZM1272.8,644.01v571.56h24v-571.56h-24ZM1284.8,1203.57h-105.68v24h105.68v-24ZM1191.12,1215.57v-571.56h-24v571.56h24Z"/>
  </g>
  <path d="M1454.39,929.4c34.45-95.64,69.67-191.03,105.67-286.16h120.33c36.51,95.13,71.99,190.52,106.45,286.16,34.45,95.65,68.13,191.04,101.04,286.17h-109.53c-7.71-24.68-15.68-49.36-23.91-74.05-8.23-25.19-16.2-50.13-23.91-74.82h-223.69c-16.46,50.4-32.66,100.02-48.6,148.87h-105.67c33.42-95.13,67.36-190.52,101.82-286.17ZM1661.11,861.53c-13.89-41.66-28.03-83.05-42.43-124.19-14.4,41.14-28.54,82.53-42.42,124.19-13.89,41.13-27.77,82.27-41.65,123.41h168.15c-13.37-41.14-27.25-82.28-41.65-123.41Z"/>
  <g class="cls-6">
    <path d="M1454.39,929.4l11.29,4.07h0l-11.29-4.07ZM1560.06,643.23v-12h-8.29l-2.93,7.75,11.22,4.25ZM1680.39,643.23l11.2-4.3-2.95-7.7h-8.25v12ZM1786.84,929.4l11.29-4.06h0l-11.29,4.06ZM1887.88,1215.57v12h16.85l-5.51-15.92-11.34,3.92ZM1778.35,1215.57l-11.45,3.58,2.63,8.42h8.82v-12ZM1754.44,1141.52l-11.41,3.73v.03s.03.04.03.04l11.38-3.8ZM1730.53,1066.7l11.45-3.58-2.63-8.42h-8.82v12ZM1506.84,1066.7v-12h-8.71l-2.7,8.28,11.41,3.72ZM1458.24,1215.57v12h8.71l2.7-8.28-11.41-3.72ZM1352.57,1215.57l-11.32-3.98-5.62,15.98h16.94v-12ZM1661.11,861.53l-11.39,3.79.03.08.03.09,11.33-3.96ZM1618.68,737.34l11.33-3.96-11.33-32.36-11.32,32.36,11.32,3.96ZM1576.26,861.53l11.37,3.83v-.02s.01-.02.01-.02l-11.38-3.79ZM1534.61,984.94l-11.37-3.84-5.35,15.84h16.72v-12ZM1702.76,984.94v12h16.52l-5.11-15.71-11.41,3.71ZM1465.68,933.47c34.43-95.59,69.63-190.92,105.6-285.99l-22.44-8.49c-36.02,95.19-71.27,190.64-105.74,286.35l22.58,8.13ZM1560.06,655.23h120.33v-24h-120.33v24ZM1669.19,647.53c36.48,95.06,71.93,190.37,106.36,285.94l22.58-8.13c-34.49-95.73-70-191.2-106.54-286.41l-22.4,8.6ZM1775.55,933.47c34.43,95.6,68.1,190.94,100.99,286.03l22.68-7.85c-32.92-95.18-66.62-190.62-101.09-286.31l-22.58,8.13ZM1887.88,1203.57h-109.53v24h109.53v-24ZM1789.8,1211.99c-7.73-24.75-15.72-49.51-23.98-74.26l-22.76,7.59c8.2,24.61,16.15,49.22,23.84,73.83l22.9-7.16ZM1765.85,1137.8c-8.22-25.15-16.17-50.04-23.87-74.68l-22.91,7.16c7.73,24.73,15.72,49.72,23.96,74.97l22.82-7.45ZM1730.53,1054.7h-223.69v24h223.69v-24ZM1495.43,1062.98c-16.45,50.39-32.65,100.02-48.59,148.87l22.81,7.44c15.94-48.85,32.14-98.47,48.6-148.86l-22.82-7.45ZM1458.24,1203.57h-105.67v24h105.67v-24ZM1363.89,1219.55c33.42-95.1,67.34-190.46,101.79-286.08l-22.58-8.13c-34.47,95.67-68.42,191.09-101.85,286.25l22.64,7.96ZM1672.49,857.73c-13.9-41.71-28.06-83.16-42.48-124.35l-22.65,7.93c14.38,41.08,28.5,82.42,42.36,124.02l22.77-7.59ZM1607.36,733.37c-14.42,41.19-28.58,82.64-42.49,124.35l22.77,7.59c13.87-41.6,27.99-82.94,42.37-124.02l-22.65-7.93ZM1564.89,857.69c-13.89,41.14-27.77,82.27-41.65,123.41l22.74,7.68c13.88-41.14,27.76-82.28,41.65-123.42l-22.74-7.67ZM1534.61,996.94h168.15v-24h-168.15v24ZM1714.17,981.23c-13.4-41.22-27.31-82.45-41.74-123.67l-22.65,7.93c14.37,41.05,28.23,82.11,41.57,123.16l22.82-7.42Z"/>
  </g>
</svg>