<?xml version="1.0" encoding="UTF-8"?>
<svg id="Layer_1" xmlns="http://www.w3.org/2000/svg" xmlns:xlink="http://www.w3.org/1999/xlink" version="1.1" viewBox="0 0 2309 1227.6">
  <!-- Generator: Adobe Illustrator 29.3.1, SVG Export Plug-In . SVG Version: 2.1.0 Build 151)  -->
  <defs>
    <style>
      .st0 {
        mask: url(#mask);
      }

      .st1 {
        mask: url(#mask-2);
      }

      .st2 {
        mask: url(#mask-3);
      }

      .st3 {
        mask: url(#mask-4);
      }

      .st4 {
        mask: url(#mask-5);
      }

      .st5 {
        mask: url(#mask-7);
      }

      .st6 {
        mask: url(#mask-6);
      }

      .st7 {
        mask: url(#mask-1);
      }

      .st8 {
        fill: #fff;
      }
    </style>
    <mask id="mask" x="867.6" y="27.9" width="892.5" height="935.2" maskUnits="userSpaceOnUse">
      <g id="path-1-outside-1_122_143">
        <rect class="st8" x="867.6" y="27.9" width="892.5" height="935.2"/>
        <path d="M1403.8,537l107.9,261.7-121.5,50.1-109.7-266.1-384.9-299,133.1-54.9,275.1,229.1,30.1-354.9,127.7-52.7-57.7,486.7Z"/>
      </g>
    </mask>
    <mask id="mask-1" x="1380.9" y="-158.5" width="655.2" height="814.5" maskUnits="userSpaceOnUse">
      <g id="path-3-outside-2_122_143">
        <rect class="st8" x="1380.9" y="-158.5" width="655.2" height="814.5"/>
        <path d="M1939.2,482.2c-33.3,47.7-87.9,81.7-163.6,101.9-35,9.4-71.4,14.8-109.1,16.3-37.3.8-71.7-2.6-103.3-10.1l-17.4-109.7c66.6,25.8,133.1,29.8,199.7,12,41.3-11.1,71-27.6,89.1-49.7,18.1-22.1,23.2-47.7,15.3-77-4.1-15.5-11.4-27.7-21.8-36.6-10.5-9.5-27.2-16.7-50.1-21.6-22.3-5.1-53.2-9.1-92.7-12.1-47.6-3.2-86.4-10.4-116.4-21.4-30.2-11.6-53.6-26.8-70.4-45.7-16.3-19.6-27.9-42.3-34.9-68.1-10.3-38.4-10-73.9,1-106.3,11.4-33.2,32-61.8,61.9-85.8,29.7-24.6,67.2-42.9,112.5-55.1,32.7-8.8,65.8-13.6,99.4-14.6,33.6-1,64.2,2.2,92,9.5l-3.7,103.4c-23.5-9.7-48.5-15.6-74.9-17.8-26.4-2.1-53.4.5-80.9,7.8-35,9.4-61.2,24.1-78.6,44.1-17.4,20-22.5,43.2-15.5,69.6,5.7,21.2,19.8,36.2,42.5,44.9,22.5,8.1,59.5,14.2,111,18.2,53.6,2.8,96.3,10.5,127.9,22.9,31.5,11.9,55.1,28,71,48.3,16.3,19.6,28.1,42.9,35.3,69.9,16.3,60.8,7.8,115.1-25.6,162.7Z"/>
      </g>
    </mask>
    <mask id="mask-2" x="193.6" y="-145.1" width="830.3" height="876.8" maskUnits="userSpaceOnUse">
      <g id="path-5-outside-3_122_143">
        <rect class="st8" x="193.6" y="-145.1" width="830.3" height="876.8"/>
        <path d="M543.1-125.4l152.8,88.2c68.4,39.5,118.4,84.8,149.9,135.9,31.8,50.6,46.6,104,44.3,160.3-1.5,56.1-18.3,111.9-50.4,167.4-32.1,55.5-72.2,98.2-120.2,128.1-47.3,29.6-100.9,43.6-161,41.8-60-1.7-124.3-22.4-192.7-61.9l-152.8-88.2L543.1-125.4ZM601.6,17.4l-235.6,408.1,59.4,34.3c61.7,35.6,118.6,44.1,170.5,25.4,52.8-18.9,97.1-59.5,133-121.7,36.2-62.8,49.2-121.4,38.9-176.1-9.5-54.9-45.1-100.1-106.8-135.7l-59.4-34.3Z"/>
      </g>
    </mask>
    <mask id="mask-3" x="2028.2" y="591.5" width="420.4" height="688.4" maskUnits="userSpaceOnUse">
      <g id="path-7-outside-4_122_143">
        <rect class="st8" x="2028.2" y="591.5" width="420.4" height="688.4"/>
        <path d="M2042.7,605.8h122.1v564.8h269v95.3h-391.1v-660.1Z"/>
      </g>
    </mask>
    <mask id="mask-4" x="-193.5" y="458.2" width="784" height="805.6" maskUnits="userSpaceOnUse">
      <g id="path-9-outside-5_122_143">
        <rect class="st8" x="-193.5" y="458.2" width="784" height="805.6"/>
        <path d="M264.2,478.6l299.5,265.2-70.6,63.6-200.1-177.2-114,128.7,160.7,142.3-63.2,71.4-160.7-142.3L-19.4,983l214.8,190.2-62.6,70.7-306.2-271.1,437.6-494.3Z"/>
      </g>
    </mask>
    <mask id="mask-5" x="472.2" y="585.1" width="651.4" height="688.4" maskUnits="userSpaceOnUse">
      <g id="path-11-outside-6_122_143">
        <rect class="st8" x="472.2" y="585.1" width="651.4" height="688.4"/>
        <path d="M728.8,912.1l-208.5-312.7h141.6l139,227.2,145.2-227.2h133.6l-210.3,317.1,227.2,343h-140.8l-158.6-258.4-164.8,258.4h-133.6l229.8-347.4Z"/>
      </g>
    </mask>
    <mask id="mask-6" x="1135.1" y="585.1" width="151.3" height="688.4" maskUnits="userSpaceOnUse">
      <g id="path-13-outside-7_122_143">
        <rect class="st8" x="1135.1" y="585.1" width="151.3" height="688.4"/>
        <path d="M1149.6,599.4h122.1v660.1h-122.1v-660.1Z"/>
      </g>
    </mask>
    <mask id="mask-7" x="1330.3" y="583.9" width="658.3" height="689.5" maskUnits="userSpaceOnUse">
      <g id="path-15-outside-8_122_143">
        <rect class="st8" x="1330.3" y="583.9" width="658.3" height="689.5"/>
        <path d="M1467.5,929c39.8-110.5,80.5-220.6,122-330.5h139c42.2,109.9,83.1,220.1,122.9,330.5,39.8,110.5,78.7,220.6,116.7,330.5h-126.5c-8.9-28.5-18.1-57-27.6-85.5-9.5-29.1-18.7-57.9-27.6-86.4h-258.4c-19,58.2-37.7,115.5-56.1,171.9h-122c38.6-109.9,77.8-220,117.6-330.5ZM1706.3,850.7c-16-48.1-32.4-95.9-49-143.4-16.6,47.5-33,95.3-49,143.4-16,47.5-32.1,95-48.1,142.5h194.2c-15.4-47.5-31.5-95-48.1-142.5Z"/>
      </g>
    </mask>
  </defs>
  <path d="M1403.8,537l107.9,261.7-121.5,50.1-109.7-266.1-384.9-299,133.1-54.9,275.1,229.1,30.1-354.9,127.7-52.7-57.7,486.7Z"/>
  <g class="st0">
    <path d="M1403.8,537l-13.8-1.6-.4,3.6,1.4,3.3,12.8-5.3ZM1511.7,798.7l5.3,12.8,12.8-5.3-5.3-12.8-12.8,5.3ZM1390.2,848.8l-12.8,5.3,5.3,12.8,12.8-5.3-5.3-12.8ZM1280.5,582.7l12.8-5.3-1.4-3.4-2.9-2.3-8.5,10.9ZM895.6,283.7l-5.3-12.8-22.1,9.1,18.9,14.7,8.5-10.9ZM1028.7,228.8l8.9-10.6-6.4-5.3-7.7,3.2,5.3,12.8ZM1303.7,457.9l-8.9,10.6,20.4,17,2.2-26.5-13.8-1.2ZM1333.8,103l-5.3-12.8-7.8,3.2-.7,8.4,13.8,1.2ZM1461.6,50.3l13.8,1.6,2.8-23.4-21.8,9,5.3,12.8ZM1391,542.3l107.9,261.7,25.6-10.6-107.9-261.7-25.6,10.6ZM1506.5,785.9l-121.5,50.1,10.6,25.6,121.5-50.1-10.6-25.6ZM1403,843.6l-109.7-266.1-25.6,10.6,109.7,266.1,25.6-10.6ZM1289,571.8l-384.9-299-17,21.9,384.9,299,17-21.9ZM900.9,296.5l133.1-54.9-10.6-25.6-133.1,54.9,10.6,25.6ZM1019.8,239.5l275.1,229.1,17.7-21.3-275.1-229.1-17.7,21.3ZM1317.5,459.1l30.1-354.9-27.6-2.3-30.1,354.9,27.6,2.3ZM1339.1,115.8l127.7-52.7-10.6-25.6-127.7,52.7,10.6,25.6ZM1447.8,48.7l-57.7,486.7,27.5,3.3,57.7-486.7-27.5-3.3Z"/>
  </g>
  <path d="M1939.2,482.2c-33.3,47.7-87.9,81.7-163.6,101.9-35,9.4-71.4,14.8-109.1,16.3-37.3.8-71.7-2.6-103.3-10.1l-17.4-109.7c66.6,25.8,133.1,29.8,199.7,12,41.3-11.1,71-27.6,89.1-49.7,18.1-22.1,23.2-47.7,15.3-77-4.1-15.5-11.4-27.7-21.8-36.6-10.5-9.5-27.2-16.7-50.1-21.6-22.3-5.1-53.2-9.1-92.7-12.1-47.6-3.2-86.4-10.4-116.4-21.4-30.2-11.6-53.6-26.8-70.4-45.7-16.3-19.6-27.9-42.3-34.9-68.1-10.3-38.4-10-73.9,1-106.3,11.4-33.2,32-61.8,61.9-85.8,29.7-24.6,67.2-42.9,112.5-55.1,32.7-8.8,65.8-13.6,99.4-14.6,33.6-1,64.2,2.2,92,9.5l-3.7,103.4c-23.5-9.7-48.5-15.6-74.9-17.8-26.4-2.1-53.4.5-80.9,7.8-35,9.4-61.2,24.1-78.6,44.1-17.4,20-22.5,43.2-15.5,69.6,5.7,21.2,19.8,36.2,42.5,44.9,22.5,8.1,59.5,14.2,111,18.2,53.6,2.8,96.3,10.5,127.9,22.9,31.5,11.9,55.1,28,71,48.3,16.3,19.6,28.1,42.9,35.3,69.9,16.3,60.8,7.8,115.1-25.6,162.7Z"/>
  <g class="st7">
    <path d="M1939.2,482.2l-11.4-7.9h0l11.4,7.9ZM1666.5,600.5l.3,13.9h.1s.1,0,.1,0l-.5-13.8ZM1563.3,590.3l-13.7,2.2,1.4,9.2,9,2.2,3.2-13.5ZM1545.9,480.6l5-12.9-22.5-8.7,3.8,23.8,13.7-2.2ZM1834.6,442.9l10.7,8.8h0l-10.7-8.8ZM1828.1,329.4l-9.3,10.3h.1c0,.1.1.2.1.2l9-10.5ZM1778.1,307.7l-3.1,13.5h0s0,0,0,0l2.9-13.5ZM1685.4,295.7l1-13.8h0s0,0,0,0l-.9,13.8ZM1569,274.3l-5,12.9h.1s0,0,0,0l4.8-13ZM1498.6,228.6l-10.6,8.9v.2c.1,0,.3.2.3.2l10.4-9.2ZM1464.8,54.1l-13.1-4.5h0s0,0,0,0l13.1,4.4ZM1526.6-31.6l8.7,10.8h0c0,0,0-.1,0-.1l-8.8-10.7ZM1738.5-101.3l-.4-13.9h0l.4,13.9ZM1830.6-91.9l13.8.5.4-11.1-10.7-2.8-3.5,13.4ZM1826.9,11.5l-5.3,12.8,18.4,7.6.7-19.9-13.8-.5ZM1752-6.3l-1.1,13.8h0l1.1-13.8ZM1592.6,45.7l10.5,9.1h0l-10.5-9.1ZM1619.6,160.2l-5,12.9h.1c0,0,.1,0,.1,0l4.7-13ZM1730.5,178.4l-1.1,13.8h.2s.2,0,.2,0l.7-13.8ZM1858.4,201.4l-5.1,12.9h0s0,0,0,0l4.9-13ZM1929.4,249.6l-10.9,8.5v.2c.1,0,.3.2.3.2l10.6-8.9ZM1927.8,474.3c-30.9,44.2-82.2,76.8-155.8,96.5l7.2,26.8c77.8-20.8,135.6-56.2,171.4-107.4l-22.7-15.9ZM1772,570.8c-34,9.1-69.3,14.4-106,15.9l1.1,27.7c38.7-1.5,76.1-7.1,112.1-16.8l-7.2-26.8ZM1666.2,586.6c-36.3.8-69.5-2.5-99.7-9.8l-6.4,27c32.8,7.8,68.5,11.3,106.8,10.5l-.6-27.7ZM1576.9,588.2l-17.4-109.7-27.4,4.3,17.4,109.7,27.4-4.3ZM1540.8,493.6c69.2,26.8,138.8,31.1,208.3,12.4l-7.2-26.8c-63.6,17-127.1,13.3-191.1-11.5l-10,25.8ZM1749.1,506c42.8-11.5,75.6-29.1,96.2-54.3l-21.4-17.6c-15.5,18.9-42.1,34.4-81.9,45.1l7.2,26.8ZM1845.3,451.7c21.1-25.8,26.9-56.1,18-89.3l-26.8,7.2c6.8,25.3,2.4,46.2-12.7,64.6l21.4,17.6ZM1863.3,362.4c-4.7-17.7-13.3-32.5-26.2-43.5l-18,21c7.9,6.8,13.9,16.4,17.4,29.7l26.8-7.2ZM1837.4,319.1c-13.1-11.8-32.6-19.7-56.4-24.9l-5.9,27.1c21.9,4.7,35.8,11.3,43.7,18.4l18.5-20.6ZM1781.2,294.2c-23.3-5.3-55-9.4-94.8-12.4l-2,27.6c39.2,2.9,69.3,6.9,90.6,11.7l6.2-27ZM1686.3,281.9c-46.9-3.2-84.2-10.2-112.6-20.6l-9.6,26c31.7,11.6,71.9,18.9,120.2,22.2l1.9-27.7ZM1573.9,261.4c-28.6-11-50-25.2-65-42l-20.7,18.4c18.6,20.9,44.1,37.3,75.7,49.5l9.9-25.9ZM1509.3,219.7c-15-18-25.7-38.9-32.1-62.9l-26.8,7.2c7.4,27.7,19.9,52.2,37.6,73.4l21.3-17.7ZM1477.1,156.9c-9.7-36.2-9.2-68.8.8-98.3l-26.3-8.9c-12,35.4-12.2,73.7-1.3,114.4l26.8-7.2ZM1477.9,58.6c10.5-30.5,29.4-57,57.4-79.5l-17.4-21.6c-31.7,25.5-54,56.2-66.3,92.1l26.2,9ZM1535.5-21c27.9-23,63.5-40.6,107.3-52.3l-7.2-26.8c-46.8,12.5-86.2,31.7-117.8,57.8l17.7,21.4ZM1642.8-73.3c31.7-8.5,63.7-13.2,96.2-14.2l-.8-27.7c-34.6,1-68.8,6.1-102.5,15.1l7.2,26.8ZM1739-87.5c32.4-1,61.8,2.1,88.1,9l7.1-26.8c-29.3-7.7-61.3-11-95.9-9.9l.8,27.7ZM1816.7-92.3l-3.7,103.4,27.7,1,3.7-103.4-27.7-1ZM1832.2-1.3c-24.9-10.3-51.2-16.5-79-18.8l-2.3,27.6c25,2,48.6,7.6,70.7,16.8l10.6-25.6ZM1753.2-20.1c-28.1-2.3-56.7.5-85.6,8.3l7.2,26.8c26.1-7,51.5-9.4,76.2-7.4l2.3-27.6ZM1667.5-11.8c-36.7,9.8-65.7,25.7-85.4,48.4l20.9,18.2c15-17.3,38.4-30.9,71.7-39.8l-7.2-26.8ZM1582.1,36.6c-20.5,23.6-26.6,51.6-18.4,82.3l26.8-7.2c-5.9-22.1-1.7-40.5,12.5-57l-20.9-18.2ZM1563.7,118.9c7,26,24.6,44.1,50.9,54.2l9.9-25.9c-19-7.3-29.6-19.1-34-35.5l-26.8,7.2ZM1614.8,173.2c24.3,8.8,62.9,15,114.6,19l2.2-27.6c-51.3-4-86.7-10-107.3-17.4l-9.4,26.1ZM1729.8,192.3c52.9,2.8,93.9,10.3,123.5,22l10.1-25.8c-33.6-13.2-77.8-21-132.2-23.9l-1.5,27.7ZM1853.5,214.3c29.8,11.2,51.1,26,65,43.9l21.8-17.1c-17.9-22.9-43.9-40.2-77.1-52.7l-9.8,25.9ZM1918.8,258.5c14.9,17.9,25.8,39.4,32.6,64.6l26.8-7.2c-7.7-28.7-20.3-53.8-38.1-75.1l-21.3,17.7ZM1951.4,323.1c15.3,57.2,7.2,107.2-23.5,151.2l22.7,15.9c35.9-51.3,44.8-109.9,27.6-174.3l-26.8,7.2Z"/>
  </g>
  <path d="M543.1-125.4l152.8,88.2c68.4,39.5,118.4,84.8,149.9,135.9,31.8,50.6,46.6,104,44.3,160.3-1.5,56.1-18.3,111.9-50.4,167.4-32.1,55.5-72.2,98.2-120.2,128.1-47.3,29.6-100.9,43.6-161,41.8-60-1.7-124.3-22.4-192.7-61.9l-152.8-88.2L543.1-125.4ZM601.6,17.4l-235.6,408.1,59.4,34.3c61.7,35.6,118.6,44.1,170.5,25.4,52.8-18.9,97.1-59.5,133-121.7,36.2-62.8,49.2-121.4,38.9-176.1-9.5-54.9-45.1-100.1-106.8-135.7l-59.4-34.3Z"/>
  <g class="st1">
    <path d="M543.1-125.4l6.9-12-12-6.9-6.9,12,12,6.9ZM845.8,98.7l-11.8,7.3h0c0,0,0,.1,0,.1l11.7-7.4ZM890,259l-13.8-.6h0c0,0,0,.2,0,.2l13.9.4ZM719.4,554.5l-7.3-11.8h0s0,0,0,0l7.4,11.7ZM558.5,596.3l.4-13.9h0l-.4,13.9ZM213.1,446.3l-12-6.9-6.9,12,12,6.9,6.9-12ZM601.6,17.4l6.9-12-12-6.9-6.9,12,12,6.9ZM366,425.5l-12-6.9-6.9,12,12,6.9,6.9-12ZM595.9,485.2l-4.7-13h0s0,0,0,0l4.7,13ZM767.8,187.4l-13.7,2.4h0c0,.1,0,.2,0,.2l13.6-2.6ZM536.2-113.4l152.8,88.2,13.9-24-152.8-88.2-13.9,24ZM689-25.2c67,38.7,115,82.5,145,131.2l23.6-14.5c-33-53.6-85-100.4-154.8-140.6l-13.9,24ZM834.1,106c30.4,48.4,44.3,99.1,42.1,152.4l27.7,1.1c2.4-59.2-13.2-115.4-46.4-168.3l-23.5,14.8ZM876.2,258.6c-1.4,53.4-17.4,107-48.5,160.8l24,13.9c33.1-57.3,50.6-115.3,52.2-174l-27.7-.7ZM827.7,419.5c-31.1,53.8-69.6,94.8-115.5,123.2l14.6,23.6c50.3-31.2,91.9-75.7,124.9-132.9l-24-13.9ZM712.1,542.7c-44.8,28.1-95.7,41.4-153.2,39.7l-.8,27.7c62.5,1.8,118.9-12.7,168.7-43.9l-14.7-23.5ZM558.9,582.4c-57.1-1.7-119.1-21.3-186.1-60l-13.9,24c69.8,40.3,136.3,61.9,199.2,63.7l.8-27.7ZM372.7,522.4l-152.8-88.2-13.9,24,152.8,88.2,13.9-24ZM225.1,453.2L555.1-118.5l-24-13.9L201.1,439.3l24,13.9ZM589.6,10.4l-235.6,408.1,24,13.9L613.6,24.3l-24-13.9ZM359,437.5l59.4,34.3,13.9-24-59.4-34.3-13.9,24ZM418.4,471.8c64.2,37,125.3,46.9,182.1,26.4l-9.4-26.1c-47.1,16.9-99.6,9.9-158.9-24.4l-13.9,24ZM600.6,498.2c56.6-20.3,103.3-63.6,140.4-127.8l-24-13.9c-34.8,60.2-76.8,98.1-125.7,115.6l9.4,26.1ZM740.9,370.4c37.4-64.7,51.6-126.8,40.5-185.6l-27.2,5.1c9.5,50.5-2.2,105.8-37.3,166.6l24,13.9ZM781.5,185c-10.4-60-49.3-108.3-113.5-145.4l-13.9,24c59.2,34.2,91.5,76.4,100.1,126.1l27.3-4.7ZM667.9,39.7l-59.4-34.3-13.9,24,59.4,34.3,13.9-24Z"/>
  </g>
  <path d="M2042.7,605.8h122.1v564.8h269v95.3h-391.1v-660.1Z"/>
  <g class="st2">
    <path d="M2042.7,605.8v-13.9h-13.9v13.9h13.9ZM2164.7,605.8h13.9v-13.9h-13.9v13.9ZM2164.7,1170.7h-13.9v13.9h13.9v-13.9ZM2433.8,1170.7h13.9v-13.9h-13.9v13.9ZM2433.8,1266v13.9h13.9v-13.9h-13.9ZM2042.7,1266h-13.9v13.9h13.9v-13.9ZM2042.7,619.7h122.1v-27.7h-122.1v27.7ZM2150.9,605.8v564.8h27.7v-564.8h-27.7ZM2164.7,1184.5h269v-27.7h-269v27.7ZM2419.9,1170.7v95.3h27.7v-95.3h-27.7ZM2433.8,1252.1h-391.1v27.7h391.1v-27.7ZM2056.5,1266v-660.1h-27.7v660.1h27.7Z"/>
  </g>
  <path d="M264.2,478.6l299.5,265.2-70.6,63.6-200.1-177.2-114,128.7,160.7,142.3-63.2,71.4-160.7-142.3L-19.4,983l214.8,190.2-62.6,70.7-306.2-271.1,437.6-494.3Z"/>
  <g class="st3">
    <path d="M264.2,478.6l9.2-10.4-10.4-9.2-9.2,10.4,10.4,9.2ZM563.7,743.7l9.3,10.3,11.5-10.4-11.6-10.3-9.2,10.4ZM493.1,807.3l-9.2,10.4,9.3,8.2,9.2-8.3-9.3-10.3ZM293,630.2l9.2-10.4-10.4-9.2-9.2,10.4,10.4,9.2ZM179,758.9l-10.4-9.2-9.2,10.4,10.4,9.2,9.2-10.4ZM339.7,901.2l10.4,9.2,9.2-10.4-10.4-9.2-9.2,10.4ZM276.6,972.6l-9.2,10.4,10.4,9.2,9.2-10.4-10.4-9.2ZM115.8,830.3l9.2-10.4-10.4-9.2-9.2,10.4,10.4,9.2ZM-19.4,983l-10.4-9.2-9.2,10.4,10.4,9.2,9.2-10.4ZM195.3,1173.2l10.4,9.2,9.2-10.4-10.4-9.2-9.2,10.4ZM132.7,1243.9l-9.2,10.4,10.4,9.2,9.2-10.4-10.4-9.2ZM-173.4,972.8l-10.4-9.2-9.2,10.4,10.4,9.2,9.2-10.4ZM255,488.9l299.5,265.2,18.4-20.8-299.5-265.2-18.4,20.8ZM554.4,733.4l-70.6,63.6,18.6,20.6,70.6-63.6-18.6-20.6ZM502.3,797l-200.1-177.2-18.4,20.8,200.1,177.2,18.4-20.8ZM282.6,621l-114,128.7,20.8,18.4,114-128.7-20.8-18.4ZM169.8,769.3l160.7,142.3,18.4-20.8-160.7-142.3-18.4,20.8ZM329.4,892.1l-63.2,71.4,20.8,18.4,63.2-71.4-20.8-18.4ZM285.7,962.2l-160.7-142.3-18.4,20.8,160.7,142.3,18.4-20.7ZM105.4,821.1L-29.8,973.8l20.8,18.4,135.2-152.7-20.8-18.4ZM-28.6,993.4l214.8,190.2,18.4-20.8L-10.2,972.7l-18.4,20.8ZM185,1164l-62.6,70.7,20.8,18.4,62.6-70.7-20.8-18.4ZM141.9,1233.5l-306.2-271.1-18.4,20.8,306.2,271.1,18.4-20.8ZM-163,982l437.6-494.3-20.8-18.4-437.6,494.3,20.8,18.4Z"/>
  </g>
  <path d="M728.8,912.1l-208.5-312.7h141.6l139,227.2,145.2-227.2h133.6l-210.3,317.1,227.2,343h-140.8l-158.6-258.4-164.8,258.4h-133.6l229.8-347.4Z"/>
  <g class="st4">
    <path d="M728.8,912.1l11.6,7.6,5.1-7.7-5.1-7.7-11.5,7.7ZM520.3,599.4v-13.9h-25.9l14.4,21.5,11.5-7.7ZM662,599.4l11.8-7.2-4.1-6.6h-7.8v13.9ZM801,826.6l-11.8,7.2,11.6,18.9,11.9-18.7-11.7-7.5ZM946.2,599.4v-13.9h-7.6l-4.1,6.4,11.7,7.5ZM1079.8,599.4l11.5,7.7,14.3-21.5h-25.8v13.9ZM869.6,916.6l-11.6-7.7-5.1,7.7,5.1,7.7,11.6-7.7ZM1096.7,1259.6v13.9h25.8l-14.2-21.5-11.6,7.6ZM956,1259.6l-11.8,7.3,4.1,6.6h7.7v-13.9ZM797.4,1001.2l11.8-7.3-11.6-18.9-11.9,18.7,11.7,7.4ZM632.6,1259.6v13.9h7.6l4.1-6.4-11.7-7.5ZM499,1259.6l-11.6-7.6-14.2,21.5h25.8v-13.9ZM740.3,904.4l-208.5-312.7-23.1,15.4,208.5,312.7,23.1-15.4ZM520.3,613.3h141.6v-27.7h-141.6v27.7ZM650.2,606.7l139,227.2,23.6-14.5-139-227.2-23.6,14.5ZM812.7,834.1l145.2-227.2-23.4-14.9-145.2,227.2,23.4,14.9ZM946.2,613.3h133.6v-27.7h-133.6v27.7ZM1068.3,591.8l-210.2,317.1,23.1,15.3,210.2-317.2-23.1-15.3ZM858,924.2l227.2,343,23.1-15.3-227.2-343-23.1,15.3ZM1096.7,1245.7h-140.8v27.7h140.8v-27.7ZM967.8,1252.3l-158.6-258.4-23.6,14.5,158.6,258.4,23.6-14.5ZM785.7,993.8l-164.8,258.4,23.4,14.9,164.8-258.4-23.4-14.9ZM632.6,1245.7h-133.6v27.7h133.6v-27.7ZM510.5,1267.2l229.8-347.4-23.1-15.3-229.8,347.4,23.1,15.3Z"/>
  </g>
  <path d="M1149.6,599.4h122.1v660.1h-122.1v-660.1Z"/>
  <g class="st6">
    <path d="M1149.6,599.4v-13.9h-13.9v13.9h13.9ZM1271.7,599.4h13.9v-13.9h-13.9v13.9ZM1271.7,1259.6v13.9h13.9v-13.9h-13.9ZM1149.6,1259.6h-13.9v13.9h13.9v-13.9ZM1149.6,613.3h122.1v-27.7h-122.1v27.7ZM1257.8,599.4v660.1h27.7v-660.1h-27.7ZM1271.7,1245.7h-122.1v27.7h122.1v-27.7ZM1163.5,1259.6v-660.1h-27.7v660.1h27.7Z"/>
  </g>
  <path d="M1467.5,929c39.8-110.5,80.5-220.6,122-330.5h139c42.2,109.9,83.1,220.1,122.9,330.5,39.8,110.5,78.7,220.6,116.7,330.5h-126.5c-8.9-28.5-18.1-57-27.6-85.5-9.5-29.1-18.7-57.9-27.6-86.4h-258.4c-19,58.2-37.7,115.5-56.1,171.9h-122c38.6-109.9,77.8-220,117.6-330.5ZM1706.3,850.7c-16-48.1-32.4-95.9-49-143.4-16.6,47.5-33,95.3-49,143.4-16,47.5-32.1,95-48.1,142.5h194.2c-15.4-47.5-31.5-95-48.1-142.5Z"/>
  <g class="st5">
    <path d="M1467.5,929l13,4.7h0l-13-4.7ZM1589.6,598.5v-13.9h-9.6l-3.4,9,13,4.9ZM1728.6,598.5l12.9-5-3.4-8.9h-9.5v13.9ZM1851.5,929l13-4.7h0l-13,4.7ZM1968.2,1259.6v13.9h19.5l-6.4-18.4-13.1,4.5ZM1841.7,1259.6l-13.2,4.1,3,9.7h10.2v-13.9ZM1814.1,1174l-13.2,4.3h0s0,0,0,0l13.1-4.4ZM1786.5,1087.6l13.2-4.1-3-9.7h-10.2v13.9ZM1528.1,1087.6v-13.9h-10.1l-3.1,9.6,13.2,4.3ZM1472,1259.6v13.9h10.1l3.1-9.6-13.2-4.3ZM1349.9,1259.6l-13.1-4.6-6.5,18.5h19.6v-13.9ZM1706.3,850.7l-13.2,4.4h0c0,0,0,.2,0,.2l13.1-4.6ZM1657.3,707.2l13.1-4.6-13.1-37.4-13.1,37.4,13.1,4.6ZM1608.3,850.7l13.1,4.4h0s-13.1-4.4-13.1-4.4ZM1560.2,993.2l-13.1-4.4-6.2,18.3h19.3v-13.9ZM1754.4,993.2v13.9h19.1l-5.9-18.1-13.2,4.3ZM1480.6,933.7c39.8-110.4,80.4-220.5,122-330.3l-25.9-9.8c-41.6,109.9-82.3,220.2-122.1,330.7l26.1,9.4ZM1589.6,612.4h139v-27.7h-139v27.7ZM1715.6,603.5c42.1,109.8,83.1,219.9,122.8,330.2l26.1-9.4c-39.8-110.6-80.8-220.8-123.1-330.8l-25.9,9.9ZM1838.5,933.7c39.8,110.4,78.7,220.5,116.6,330.4l26.2-9.1c-38-109.9-76.9-220.2-116.8-330.7l-26.1,9.4ZM1968.2,1245.7h-126.5v27.7h126.5v-27.7ZM1854.9,1255.4c-8.9-28.6-18.2-57.2-27.7-85.8l-26.3,8.8c9.5,28.4,18.7,56.8,27.5,85.3l26.4-8.3ZM1827.3,1169.7c-9.5-29-18.7-57.8-27.6-86.3l-26.5,8.3c8.9,28.6,18.2,57.4,27.7,86.6l26.4-8.6ZM1786.5,1073.8h-258.4v27.7h258.4v-27.7ZM1514.9,1083.3c-19,58.2-37.7,115.5-56.1,171.9l26.3,8.6c18.4-56.4,37.1-113.7,56.1-171.9l-26.4-8.6ZM1472,1245.7h-122v27.7h122v-27.7ZM1363,1264.2c38.6-109.8,77.8-220,117.6-330.4l-26.1-9.4c-39.8,110.5-79,220.7-117.6,330.6l26.1,9.2ZM1719.4,846.3c-16.1-48.2-32.4-96-49.1-143.6l-26.2,9.2c16.6,47.4,32.9,95.2,48.9,143.2l26.3-8.8ZM1644.2,702.6c-16.7,47.6-33,95.5-49.1,143.6l26.3,8.8c16-48,32.3-95.8,48.9-143.2l-26.2-9.2ZM1595.2,846.2c-16,47.5-32.1,95-48.1,142.5l26.3,8.9c16-47.5,32.1-95,48.1-142.5l-26.3-8.9ZM1560.2,1007.1h194.2v-27.7h-194.2v27.7ZM1767.6,988.9c-15.5-47.6-31.5-95.2-48.2-142.8l-26.2,9.2c16.6,47.4,32.6,94.8,48,142.2l26.4-8.6Z"/>
  </g>
</svg>