<?xml version="1.0" encoding="UTF-8"?>
<svg id="Layer_1" xmlns="http://www.w3.org/2000/svg" xmlns:xlink="http://www.w3.org/1999/xlink" version="1.1" viewBox="0 0 2309 1243.1">
  <!-- Generator: Adobe Illustrator 29.3.1, SVG Export Plug-In . SVG Version: 2.1.0 Build 151)  -->
  <path d="M1392,595.7l94.3,228.8-106.2,43.8-95.9-232.7-336.6-261.4,116.4-48,240.5,200.3,26.3-310.3,111.7-46.1-50.5,425.6h0Z"/>
  <path d="M1392,595.7l-12.1-1.4-.3,3.1,1.2,2.9,11.2-4.6ZM1486.3,824.5l4.6,11.2,11.2-4.6-4.6-11.2-11.2,4.6ZM1380.1,868.4l-11.2,4.6,4.6,11.2,11.2-4.6-4.6-11.2ZM1284.2,635.7l11.2-4.6-1.2-3-2.5-2-7.4,9.5h0ZM947.6,374.2l-4.6-11.2-19.3,8,16.5,12.9,7.4-9.5h0ZM1064,326.2l7.8-9.3-5.6-4.6-6.7,2.8,4.6,11.2h0ZM1304.5,526.6l-7.8,9.3,17.8,14.9,1.9-23.2-12.1-1h0ZM1330.8,216.2l-4.6-11.2-6.8,2.8-.6,7.3,12.1,1h0ZM1442.5,170.2l12.1,1.4,2.4-20.5-19.1,7.9,4.6,11.2h0ZM1380.8,600.4l94.3,228.8,22.4-9.3-94.3-228.8-22.4,9.3ZM1481.8,813.4l-106.2,43.8,9.3,22.4,106.2-43.8-9.3-22.4ZM1391.3,863.8l-95.9-232.7-22.4,9.3,95.9,232.7,22.4-9.3ZM1291.6,626.2l-336.6-261.4-14.9,19.1,336.6,261.4,14.9-19.1ZM952.3,385.4l116.4-48-9.3-22.4-116.4,48,9.3,22.4ZM1056.2,335.6l240.5,200.3,15.5-18.6-240.5-200.3-15.5,18.6h0ZM1316.5,527.6l26.3-310.3-24.1-2-26.3,310.3,24.1,2ZM1335.4,227.4l111.7-46.1-9.3-22.4-111.7,46.1,9.3,22.4ZM1430.5,168.8l-50.5,425.6,24,2.9,50.5-425.6-24-2.9h0Z"/>
  <path d="M1860.1,547.8c-29.1,41.7-76.9,71.4-143.1,89.1-30.6,8.2-62.4,12.9-95.4,14.3-32.6.7-62.7-2.3-90.3-8.8l-15.2-95.9c58.2,22.6,116.4,26.1,174.6,10.5,36.1-9.7,62.1-24.1,77.9-43.5,15.8-19.3,20.3-41.7,13.4-67.3-3.6-13.6-10-24.2-19.1-32-9.2-8.3-23.8-14.6-43.8-18.9-19.5-4.5-46.5-8-81.1-10.6-41.6-2.8-75.5-9.1-101.8-18.7-26.4-10.1-46.9-23.4-61.6-40-14.3-17.1-24.4-37-30.5-59.5-9-33.6-8.7-64.6.9-92.9,10-29,28-54,54.1-75,26-21.5,58.8-37.5,98.4-48.2,28.6-7.7,57.5-11.9,86.9-12.8,29.4-.9,56.1,1.9,80.4,8.3l-3.2,90.4c-20.5-8.5-42.4-13.6-65.5-15.6-23.1-1.8-46.7.4-70.7,6.8-30.6,8.2-53.5,21.1-68.7,38.6-15.2,17.5-19.7,37.8-13.6,60.9,5,18.5,17.3,31.7,37.2,39.3,19.7,7.1,52,12.4,97.1,15.9,46.9,2.4,84.2,9.2,111.8,20,27.5,10.4,48.2,24.5,62.1,42.2,14.3,17.1,24.6,37.5,30.9,61.1,14.3,53.2,6.8,100.6-22.4,142.3h.3Z"/>
  <path d="M1860.1,547.8l-10-6.9h0l10,6.9ZM1621.7,651.2l.3,12.2h.2l-.4-12.1h0ZM1531.4,642.3l-12,1.9,1.2,8,7.9,1.9,2.8-11.8h0ZM1516.2,546.4l4.4-11.3-19.7-7.6,3.3,20.8,12-1.9h0ZM1768.7,513.4l9.4,7.7h0l-9.4-7.7ZM1763,414.2l-8.1,9h0c0,0,0,.2,0,.2l7.9-9.2h0ZM1719.3,395.2l-2.7,11.8h0l2.5-11.8h.2ZM1638.2,384.7l.9-12.1h0l-.8,12.1h0ZM1536.4,366l-4.4,11.3h0l4.2-11.4h0ZM1474.9,326.1l-9.3,7.8v.2c0,0,.3.2.3.2l9.1-8h0ZM1445.3,173.5l-11.5-3.9h0l11.5,3.8h0ZM1499.4,98.5l7.6,9.4h0c0,0-7.7-9.4-7.7-9.4h0ZM1684.6,37.6l-.3-12.2h0l.3,12.2ZM1765.2,45.9l12.1.4.3-9.7-9.4-2.4-3.1,11.7h0ZM1761.9,136.2l-4.6,11.2,16.1,6.6.6-17.4-12.1-.4h0ZM1696.4,120.8l-1,12.1h0s1-12.1,1-12.1ZM1557.1,166.1l9.2,8h0l-9.2-8ZM1580.7,266.3l-4.4,11.3h.2l4.1-11.4h0ZM1677.6,282.3l-1,12.1h.3l.6-12.1h0ZM1789.5,302.3l-4.5,11.3h0l4.3-11.4h.2ZM1851.6,344.5l-9.5,7.4v.2c0,0,.3.2.3.2l9.3-7.8h0ZM1850.2,540.9c-27,38.6-71.9,67.2-136.2,84.4l6.3,23.4c68-18.2,118.6-49.1,149.9-93.9l-19.8-13.9h0ZM1713.9,625.3c-29.7,8-60.6,12.6-92.7,13.9l1,24.2c33.8-1.3,66.5-6.2,98-14.7l-6.3-23.4h0ZM1621.4,639.1c-31.7.7-60.8-2.2-87.2-8.6l-5.6,23.6c28.7,6.8,59.9,9.9,93.4,9.2l-.5-24.2h0ZM1543.3,640.5l-15.2-95.9-24,3.8,15.2,95.9,24-3.8ZM1511.8,557.8c60.5,23.4,121.4,27.2,182.1,10.8l-6.3-23.4c-55.6,14.9-111.1,11.6-167.1-10.1l-8.7,22.6h0ZM1693.9,568.6c37.4-10.1,66.1-25.4,84.1-47.5l-18.7-15.4c-13.6,16.5-36.8,30.1-71.6,39.4l6.3,23.4h0ZM1778,521.1c18.4-22.6,23.5-49.1,15.7-78.1l-23.4,6.3c5.9,22.1,2.1,40.4-11.1,56.5l18.7,15.4h0ZM1793.8,443.1c-4.1-15.5-11.6-28.4-22.9-38l-15.7,18.4c6.9,5.9,12.2,14.3,15.2,26l23.4-6.3h0ZM1771.1,405.2c-11.5-10.3-28.5-17.2-49.3-21.8l-5.2,23.7c19.1,4.1,31.3,9.9,38.2,16.1l16.2-18h0ZM1722,383.4c-20.4-4.6-48.1-8.2-82.9-10.8l-1.7,24.1c34.3,2.5,60.6,6,79.2,10.2l5.4-23.6h0ZM1639,372.7c-41-2.8-73.6-8.9-98.5-18l-8.4,22.7c27.7,10.1,62.9,16.5,105.1,19.4l1.7-24.2h0ZM1540.7,354.7c-25-9.6-43.7-22-56.8-36.7l-18.1,16.1c16.3,18.3,38.6,32.6,66.2,43.3l8.7-22.6h0ZM1484.2,318.3c-13.1-15.7-22.5-34-28.1-55l-23.4,6.3c6.5,24.2,17.4,45.6,32.9,64.2l18.6-15.5ZM1456.1,263.4c-8.5-31.7-8-60.2.7-86l-23-7.8c-10.5,31-10.7,64.4-1.1,100l23.4-6.3ZM1456.8,177.4c9.2-26.7,25.7-49.8,50.2-69.5l-15.2-18.9c-27.7,22.3-47.2,49.1-58,80.5l22.9,7.9h0ZM1507.1,107.9c24.4-20.1,55.5-35.5,93.8-45.7l-6.3-23.4c-40.9,10.9-75.4,27.7-103,50.5l15.5,18.7h0ZM1601,62.1c27.7-7.4,55.7-11.5,84.1-12.4l-.7-24.2c-30.3.9-60.2,5.3-89.6,13.2l6.3,23.4h0ZM1685.1,49.7c28.3-.9,54,1.8,77,7.9l6.2-23.4c-25.6-6.7-53.6-9.6-83.9-8.7l.7,24.2h0ZM1753,45.5l-3.2,90.4,24.2.9,3.2-90.4s-24.2-.9-24.2-.9ZM1766.6,125c-21.8-9-44.8-14.4-69.1-16.4l-2,24.1c21.9,1.7,42.5,6.6,61.8,14.7l9.3-22.4h0ZM1697.5,108.6c-24.6-2-49.6.4-74.8,7.3l6.3,23.4c22.8-6.1,45-8.2,66.6-6.5l2-24.1h0ZM1622.6,115.9c-32.1,8.6-57.4,22.5-74.7,42.3l18.3,15.9c13.1-15.1,33.6-27,62.7-34.8l-6.3-23.4h0ZM1547.9,158.2c-17.9,20.6-23.3,45.1-16.1,72l23.4-6.3c-5.2-19.3-1.5-35.4,10.9-49.8l-18.3-15.9h0ZM1531.8,230.1c6.1,22.7,21.5,38.6,44.5,47.4l8.7-22.6c-16.6-6.4-25.9-16.7-29.7-31l-23.4,6.3ZM1576.5,277.7c21.2,7.7,55,13.1,100.2,16.6l1.9-24.1c-44.9-3.5-75.8-8.7-93.8-15.2l-8.2,22.8h0ZM1677,294.3c46.3,2.4,82.1,9,108,19.2l8.8-22.6c-29.4-11.5-68-18.4-115.6-20.9l-1.3,24.2h0ZM1785.2,313.6c26.1,9.8,44.7,22.7,56.8,38.4l19.1-15c-15.7-20-38.4-35.2-67.4-46.1l-8.6,22.6h0ZM1842.3,352.2c13,15.7,22.6,34.5,28.5,56.5l23.4-6.3c-6.7-25.1-17.8-47-33.3-65.7l-18.6,15.5ZM1870.8,408.7c13.4,50,6.3,93.7-20.5,132.2l19.8,13.9c31.4-44.9,39.2-96.1,24.1-152.4l-23.4,6.3h0Z"/>
  <path d="M639.4,16.5l133.6,77.1c59.8,34.5,103.5,74.1,131.1,118.8,27.8,44.2,40.7,90.9,38.7,140.2-1.3,49.1-16,97.8-44.1,146.4-28.1,48.5-63.1,85.9-105.1,112-41.4,25.9-88.2,38.1-140.8,36.5-52.5-1.5-108.7-19.6-168.5-54.1l-133.6-77.1L639.4,16.5ZM690.5,141.4l-206,356.8,51.9,30c53.9,31.1,103.7,38.6,149.1,22.2,46.2-16.5,84.9-52,116.3-106.4,31.7-54.9,43-106.2,34-154-8.3-48-39.4-87.5-93.4-118.7l-51.9-30h0Z"/>
  <path d="M639.4,16.5l6-10.5-10.5-6-6,10.5s10.5,6,10.5,6ZM904.1,212.5l-10.3,6.4h0c0,0,10.2-6.4,10.2-6.4h0ZM942.7,352.6l-12.1-.5h0v.2l12.2.3h0ZM793.6,611l-6.4-10.3h0l6.5,10.2h0ZM652.9,647.6l.3-12.2h0l-.3,12.2ZM350.8,516.4l-10.5-6-6,10.5,10.5,6,6-10.5ZM690.5,141.4l6-10.5-10.5-6-6,10.5,10.5,6h0ZM484.5,498.2l-10.5-6-6,10.5,10.5,6,6-10.5ZM685.6,550.4l-4.1-11.4h0l4.1,11.4ZM835.9,290l-12,2.1h0v.2l11.9-2.3h0ZM633.4,27l133.6,77.1,12.2-21L645.5,6l-12.2,21h0ZM767,104.1c58.6,33.8,100.6,72.1,126.8,114.7l20.6-12.7c-28.9-46.9-74.3-87.8-135.4-122.9l-12.2,21h0ZM893.8,218.9c26.6,42.3,38.7,86.7,36.8,133.3l24.2,1c2.1-51.8-11.5-100.9-40.6-147.2l-20.5,12.9h0ZM930.7,352.3c-1.2,46.7-15.2,93.6-42.4,140.6l21,12.2c28.9-50.1,44.2-100.8,45.6-152.1l-24.2-.6h0ZM888.2,493c-27.2,47-60.9,82.9-101,107.7l12.8,20.6c44-27.3,80.4-66.2,109.2-116.2l-21-12.2h0ZM787.2,600.7c-39.2,24.6-83.7,36.2-134,34.7l-.7,24.2c54.6,1.6,104-11.1,147.5-38.4l-12.9-20.5ZM653.2,635.5c-49.9-1.5-104.1-18.6-162.7-52.5l-12.2,21c61,35.2,119.2,54.1,174.2,55.7l.7-24.2ZM490.4,583l-133.6-77.1-12.2,21,133.6,77.1,12.2-21ZM361.3,522.4L649.9,22.6l-21-12.2-288.5,499.9,21,12.2ZM680.1,135.3l-206,356.8,21,12.2,206-356.8-21-12.2h0ZM478.4,508.7l51.9,30,12.2-21-51.9-30-12.2,21ZM530.4,538.7c56.1,32.4,109.6,41,159.2,23.1l-8.2-22.8c-41.2,14.8-87.1,8.7-138.9-21.3l-12.2,21h0ZM689.7,561.9c49.5-17.8,90.3-55.6,122.8-111.7l-21-12.2c-30.4,52.6-67.2,85.8-109.9,101.1l8.2,22.8h0ZM812.4,450c32.7-56.6,45.1-110.9,35.4-162.3l-23.8,4.5c8.3,44.2-1.9,92.5-32.6,145.7l21,12.2ZM847.9,287.9c-9.1-52.5-43.1-94.7-99.2-127.1l-12.2,21c51.8,29.9,80,66.8,87.5,110.3l23.9-4.1h0ZM748.5,160.9l-51.9-30-12.2,21,51.9,30,12.2-21Z"/>
  <path d="M1950.6,656h106.8v493.9h235.2v83.3h-342v-577.2h0Z"/>
  <path d="M1950.6,656v-12.2h-12.2v12.2h12.2ZM2057.3,656h12.2v-12.2h-12.2v12.2ZM2057.3,1149.8h-12.2v12.2h12.2v-12.2ZM2292.6,1149.8h12.2v-12.2h-12.2v12.2ZM2292.6,1233.2v12.2h12.2v-12.2h-12.2ZM1950.6,1233.2h-12.2v12.2h12.2v-12.2ZM1950.6,668h106.8v-24.2h-106.8v24.2h0ZM2045.2,656v493.9h24.2v-493.9h-24.2ZM2057.3,1161.9h235.2v-24.2h-235.2v24.2ZM2280.5,1149.8v83.3h24.2v-83.3h-24.2ZM2292.6,1221h-342v24.2h342v-24.2ZM1962.7,1233.2v-577.2h-24.2v577.2h24.2Z"/>
  <path d="M395.5,544.7l261.9,231.9-61.7,55.6-175-154.9-99.7,112.5,140.5,124.4-55.3,62.4-140.5-124.4-118.2,133.5,187.8,166.3-54.7,61.8L12.9,976.8l382.6-432.2h0Z"/>
  <path d="M395.5,544.7l8-9.1-9.1-8-8,9.1,9.1,8h0ZM657.4,776.5l8.1,9,10.1-9.1-10.1-9-8,9.1ZM595.7,832.2l-8,9.1,8.1,7.2,8-7.3-8.1-9h0ZM420.7,677.2l8-9.1-9.1-8-8,9.1,9.1,8ZM321,789.7l-9.1-8-8,9.1,9.1,8,8-9.1ZM461.5,914.3l9.1,8,8-9.1-9.1-8-8,9.1h0ZM406.4,976.6l-8,9.1,9.1,8,8-9.1-9.1-8ZM265.8,852.2l8-9.1-9.1-8-8,9.1,9.1,8ZM147.6,985.7l-9.1-8-8,9.1,9.1,8s8-9.1,8-9.1ZM335.3,1152l9.1,8,8-9.1-9.1-8-8,9.1ZM280.5,1213.8l-8,9.1,9.1,8,8-9.1-9.1-8ZM12.9,976.8l-9.1-8-8,9.1,9.1,8,8-9.1ZM387.5,553.8l261.9,231.9,16.1-18.2-261.9-231.9-16.1,18.2h0ZM649.3,767.5l-61.7,55.6,16.3,18,61.7-55.6-16.3-18ZM603.7,823.1l-175-154.9-16.1,18.2,175,154.9,16.1-18.2ZM411.6,669.2l-99.7,112.5,18.2,16.1,99.7-112.5-18.2-16.1h0ZM313,798.8l140.5,124.4,16.1-18.2-140.5-124.4-16.1,18.2h0ZM452.5,906.2l-55.3,62.4,18.2,16.1,55.3-62.4-18.2-16.1ZM414.3,967.6l-140.5-124.4-16.1,18.2,140.5,124.4,16.1-18.1h0ZM256.7,844.1l-118.2,133.5,18.2,16.1,118.2-133.5-18.2-16.1h0ZM139.5,994.8l187.8,166.3,16.1-18.2-187.8-166.2-16.1,18.2h0ZM326.3,1144l-54.7,61.8,18.2,16.1,54.7-61.8-18.2-16.1h0ZM288.6,1204.7L20.9,967.7l-16.1,18.2,267.7,237,16.1-18.2ZM22,984.8l382.6-432.2-18.2-16.1L3.8,968.7l18.2,16.1Z"/>
  <path d="M801.8,923.7l-182.3-273.4h123.8l121.5,198.7,127-198.7h116.8l-183.9,277.3,198.7,299.9h-123.1l-138.7-225.9-144.1,225.9h-116.8l200.9-303.8h.2Z"/>
  <path d="M801.8,923.7l10.1,6.6,4.5-6.7-4.5-6.7-10.1,6.7h0ZM619.5,650.3v-12.2h-22.6l12.6,18.8,10.1-6.7h0ZM743.4,650.3l10.3-6.3-3.6-5.8h-6.8v12.2h0ZM864.9,848.9l-10.3,6.3,10.1,16.5,10.4-16.4-10.2-6.6h0ZM991.9,650.3v-12.2h-6.6l-3.6,5.6,10.2,6.6h0ZM1108.7,650.3l10.1,6.7,12.5-18.8h-22.6v12.2h0ZM924.9,927.6l-10.1-6.7-4.5,6.7,4.5,6.7,10.1-6.7ZM1123.5,1227.6v12.2h22.6l-12.4-18.8-10.1,6.6h0ZM1000.4,1227.6l-10.3,6.4,3.6,5.8h6.7v-12.2ZM861.8,1001.6l10.3-6.4-10.1-16.5-10.4,16.4,10.2,6.5h0ZM717.7,1227.6v12.2h6.6l3.6-5.6-10.2-6.6h0ZM600.8,1227.6l-10.1-6.6-12.4,18.8h22.6v-12.2h0ZM811.8,917l-182.3-273.4-20.2,13.5,182.3,273.4,20.2-13.5h0ZM619.5,662.4h123.8v-24.2h-123.8v24.2h0ZM733,656.7l121.5,198.7,20.6-12.7-121.5-198.7-20.6,12.7ZM875.1,855.5l127-198.7-20.5-13-127,198.7,20.5,13ZM991.9,662.4h116.8v-24.2h-116.8v24.2h0ZM1098.6,643.6l-183.8,277.3,20.2,13.4,183.8-277.4-20.2-13.4h0ZM914.7,934.3l198.7,299.9,20.2-13.4-198.7-299.9-20.2,13.4h0ZM1123.5,1215.4h-123.1v24.2h123.1v-24.2ZM1010.8,1221.2l-138.7-225.9-20.6,12.7,138.7,225.9,20.6-12.7h0ZM851.5,995.1l-144.1,225.9,20.5,13,144.1-225.9-20.5-13ZM717.7,1215.4h-116.8v24.2h116.8v-24.2ZM610.9,1234.2l200.9-303.8-20.2-13.4-200.9,303.8,20.2,13.4h0Z"/>
  <path d="M1169.7,650.3h106.8v577.2h-106.8v-577.2h0Z"/>
  <path d="M1169.7,650.3v-12.2h-12.2v12.2h12.2ZM1276.5,650.3h12.2v-12.2h-12.2v12.2ZM1276.5,1227.6v12.2h12.2v-12.2h-12.2ZM1169.7,1227.6h-12.2v12.2h12.2v-12.2ZM1169.7,662.4h106.8v-24.2h-106.8v24.2ZM1264.3,650.3v577.2h24.2v-577.2h-24.2ZM1276.5,1215.4h-106.8v24.2h106.8v-24.2ZM1181.9,1227.6v-577.2h-24.2v577.2h24.2Z"/>
  <path d="M1447.7,938.6c34.8-96.6,70.4-192.9,106.7-289h121.5c36.9,96.1,72.7,192.5,107.5,289,34.8,96.6,68.8,192.9,102,289h-110.6c-7.8-24.9-15.8-49.8-24.1-74.8-8.3-25.4-16.4-50.6-24.1-75.5h-225.9c-16.6,50.9-33,101-49.1,150.3h-106.7c33.8-96.1,68-192.4,102.8-289ZM1656.5,870c-14-42.1-28.3-83.9-42.8-125.4-14.5,41.5-28.9,83.3-42.8,125.4-14,41.5-28.1,83.1-42.1,124.6h169.8c-13.5-41.5-27.5-83.1-42.1-124.6Z"/>
  <path d="M1447.7,938.6l11.4,4.1h0l-11.4-4.1ZM1554.4,649.5v-12.2h-8.4l-3,7.9,11.4,4.3ZM1676,649.5l11.3-4.4-3-7.8h-8.3v12.2ZM1783.4,938.6l11.4-4.1h0l-11.4,4.1ZM1885.5,1227.6v12.2h17.1l-5.6-16.1-11.5,3.9ZM1774.9,1227.6l-11.5,3.6,2.6,8.5h8.9v-12.2h0ZM1750.7,1152.8l-11.5,3.8h0l11.5-3.8h0ZM1726.6,1077.2l11.5-3.6-2.6-8.5h-8.9v12.2h0ZM1500.7,1077.2v-12.2h-8.8l-2.7,8.4,11.5,3.8ZM1451.6,1227.6v12.2h8.8l2.7-8.4-11.5-3.8ZM1344.9,1227.6l-11.5-4-5.7,16.2h17.1v-12.2ZM1656.5,870l-11.5,3.8h0v.2l11.5-4h0ZM1613.6,744.5l11.5-4-11.5-32.7-11.5,32.7,11.5,4ZM1570.8,870l11.5,3.8h0l-11.5-3.8ZM1528.7,994.6l-11.5-3.8-5.4,16h16.9v-12.2h0ZM1698.5,994.6v12.2h16.7l-5.2-15.8-11.5,3.8h0ZM1459.1,942.7c34.8-96.5,70.3-192.8,106.7-288.8l-22.6-8.6c-36.4,96.1-72,192.5-106.8,289.2l22.8,8.2h0ZM1554.4,661.7h121.5v-24.2h-121.5v24.2ZM1664.6,653.9c36.8,96,72.7,192.3,107.4,288.7l22.8-8.2c-34.8-96.7-70.7-193.1-107.6-289.2l-22.6,8.7h0ZM1772.1,942.7c34.8,96.5,68.8,192.8,102,288.9l22.9-8c-33.2-96.1-67.2-192.5-102.1-289.2l-22.8,8.2h0ZM1885.5,1215.4h-110.6v24.2h110.6v-24.2ZM1786.4,1223.9c-7.8-25-15.9-50-24.2-75l-23,7.7c8.3,24.8,16.4,49.7,24,74.6l23.1-7.3h0ZM1762.3,1149c-8.3-25.4-16.4-50.5-24.1-75.5l-23.2,7.3c7.8,25,15.9,50.2,24.2,75.7l23.1-7.5ZM1726.6,1065.1h-225.9v24.2h225.9v-24.2ZM1489.1,1073.4c-16.6,50.9-33,101-49.1,150.3l23,7.5c16.1-49.3,32.4-99.4,49.1-150.3l-23.1-7.5h0ZM1451.6,1215.4h-106.7v24.2h106.7v-24.2ZM1356.3,1231.6c33.8-96,68-192.4,102.8-288.9l-22.8-8.2c-34.8,96.6-69.1,193-102.8,289.1l22.8,8h0ZM1667.9,866.2c-14.1-42.1-28.3-83.9-42.9-125.6l-22.9,8c14.5,41.4,28.8,83.2,42.8,125.2l23-7.7h0ZM1602.2,740.6c-14.6,41.6-28.9,83.5-42.9,125.6l23,7.7c14-42,28.2-83.8,42.8-125.2l-22.9-8h0ZM1559.3,866.1c-14,41.5-28.1,83.1-42.1,124.6l23,7.8c14-41.5,28.1-83.1,42.1-124.6l-23-7.8ZM1528.7,1006.8h169.8v-24.2h-169.8v24.2ZM1710.1,990.9c-13.6-41.6-27.5-83.2-42.1-124.9l-22.9,8c14.5,41.4,28.5,82.9,42,124.3l23.1-7.5h0Z"/>
</svg>