<?xml version="1.0" encoding="UTF-8"?>
<svg xmlns="http://www.w3.org/2000/svg" version="1.1" viewBox="0 0 159.74 325.56">
  <!-- Generator: Adobe Illustrator 29.3.1, SVG Export Plug-In . SVG Version: 2.1.0 Build 151)  -->
  <defs>
    <style>
      .st0 {
        fill: #231f20;
      }
    </style>
  </defs>
  <g id="A">
    <path class="st0" d="M112.85,262.16c2.52-7,5.1-13.98,7.73-20.94h8.8c2.67,6.96,5.27,13.94,7.79,20.94,2.52,7,4.99,13.98,7.39,20.94h-8.01c-.56-1.81-1.15-3.62-1.75-5.45-.6-1.82-1.19-3.64-1.75-5.45h-16.37c-1.2,3.69-2.39,7.32-3.56,10.89h-7.73c2.45-6.96,4.93-13.94,7.45-20.94ZM128.01,257.17c-1.04-3.03-2.08-6.05-3.13-9.06-1.05,3.01-2.09,6.03-3.1,9.06-1.02,3.03-2.03,6.05-3.05,9.06h12.3c-.98-3.01-1.99-6.03-3.02-9.06Z"/>
  </g>
  <g id="I">
    <path class="st0" d="M79.18,241.28h7.73v41.82h-7.73v-41.82Z"/>
  </g>
  <g id="X">
    <path class="st0" d="M37.23,267.61l-13.21-19.81h8.97l8.8,14.39,9.2-14.39h8.47l-13.32,20.09,14.39,21.73h-8.92l-10.05-16.37-10.44,16.37h-8.47l14.56-22.01Z"/>
  </g>
  <g id="E">
    <path class="st0" d="M97.49,182.77h25.34l-.68,5.98h-16.93v10.89h13.6v6.04h-13.6v12.92h18.17v5.98h-25.91v-41.82Z"/>
  </g>
  <g id="L">
    <path class="st0" d="M41.68,182.77h7.73v35.78h17.04v6.04h-24.78v-41.82Z"/>
  </g>
  <g id="S">
    <path class="st0" d="M122.2,150.63c-2.72,2.28-6.46,3.42-11.24,3.42-2.21,0-4.43-.26-6.66-.79-2.23-.53-4.21-1.26-5.95-2.2l.71-6.74c3.51,2.57,7.37,3.86,11.57,3.86,2.61,0,4.62-.51,6.03-1.52,1.41-1.01,2.12-2.44,2.12-4.29,0-.98-.24-1.82-.71-2.53-.47-.71-1.33-1.38-2.58-2.04-1.25-.65-3.01-1.38-5.3-2.17-2.75-.94-4.93-1.98-6.52-3.12-1.59-1.14-2.73-2.41-3.4-3.8-.67-1.39-1-2.91-1-4.54,0-2.43.59-4.52,1.77-6.27,1.18-1.76,2.83-3.11,4.97-4.07,2.14-.96,4.63-1.44,7.5-1.44,2.06,0,4.09.24,6.08.71,1.99.47,3.75,1.14,5.27,2.01l-1.85,6.03c-1.23-.94-2.61-1.68-4.13-2.23-1.52-.54-3.15-.82-4.89-.82-2.21,0-3.98.45-5.32,1.36s-2.01,2.19-2.01,3.86c0,1.34.6,2.44,1.79,3.29s3.28,1.8,6.25,2.85c3.11,1.01,5.5,2.13,7.17,3.34,1.67,1.21,2.82,2.54,3.45,3.96.63,1.43.95,3,.95,4.7,0,3.84-1.36,6.9-4.07,9.18Z"/>
  </g>
  <g id="Y">
    <path class="st0" d="M77.19,152.05l.2,16.65-7.73.09-.2-16.93-14.52-24.72,8.46-.1,10.04,18.5,9.37-18.74,8.13-.1-13.75,25.34Z"/>
  </g>
  <g id="D">
    <path class="st0" d="M58.94,70.57h11.17c5,0,9.18.89,12.53,2.68s5.86,4.25,7.53,7.39,2.51,6.74,2.51,10.81-.84,7.67-2.51,10.81c-1.67,3.14-4.19,5.62-7.53,7.42s-7.53,2.71-12.53,2.71h-11.17v-41.82ZM66.67,76.55v29.86h4.35c4.51,0,7.91-1.34,10.19-4.04,2.28-2.69,3.42-6.31,3.42-10.86s-1.14-8.23-3.42-10.92c-2.28-2.69-5.67-4.04-10.19-4.04h-4.35Z"/>
  </g>
</svg>